<?xml version="1.0" encoding="UTF-8"?>
<!DOCTYPE svg PUBLIC "-//W3C//DTD SVG 1.1//EN" "http://www.w3.org/Graphics/SVG/1.1/DTD/svg11.dtd">
<!-- Creator: CorelDRAW -->
<svg xmlns="http://www.w3.org/2000/svg" xml:space="preserve" width="42.3332mm" height="42.3332mm" version="1.1" style="shape-rendering:geometricPrecision; text-rendering:geometricPrecision; image-rendering:optimizeQuality; fill-rule:evenodd; clip-rule:evenodd"
viewBox="0 0 4233.32 4233.32"
 xmlns:xlink="http://www.w3.org/1999/xlink"
 xmlns:xodm="http://www.corel.com/coreldraw/odm/2003">
 <defs>
  <style type="text/css">
   <![CDATA[
    .fil0 {fill:none}
    .fil3 {fill:black}
    .fil4 {fill:#00A0E3}
    .fil8 {fill:#1600DB}
    .fil5 {fill:#F01570}
    .fil2 {fill:#FEFEFE}
    .fil1 {fill:#FF6600}
    .fil7 {fill:#FFDD00}
    .fil6 {fill:#A32821;fill-rule:nonzero}
   ]]>
  </style>
 </defs>
 <g id="Layer_x0020_1">
  <metadata id="CorelCorpID_0Corel-Layer"/>
  <rect class="fil0" x="-0.02" y="-0.01" width="4233.33" height="4233.33" rx="423.33" ry="423.33"/>
  <g id="_2625282688768">
   <path class="fil1" d="M3941.66 3470.34c66.06,3.9 -58.58,-96.33 -45.24,-150.78 84.59,49.35 62.25,61.29 219.78,69.28 -38.58,-43.69 -131.93,-39.76 -136.8,-106.38 38.39,4.45 148.58,38.51 202.57,-16.46 -49.65,-5.15 -134.99,-0.69 -165.71,-28.29 74.08,6.55 156.96,18.37 193.15,-39.78 -63.44,4.47 -114.89,23.04 -178.99,-5.19 42.52,-28.06 67.26,-6.99 108.32,-68.09 -63.63,-4.4 -90.9,56.35 -187.34,-16.16 -36.68,-27.58 -68.6,-70.64 -140.21,-119.98 -151.08,-104.1 -161.92,-185.77 -288.07,-233.34 -228.49,-86.17 -563.49,-48.43 -346.33,-292.63 42.68,-47.99 111.51,-90.3 177.27,-61.2 1.66,-65.17 -21.9,-72.51 -81.7,-88.03 -58.85,-15.29 -77.66,-29.48 -144.15,-33.51 -97.63,-5.93 -208.26,74.92 -272.53,-3.69 -93.69,-114.59 -28.2,-263.41 -34.54,-433.28 -8.04,-215.17 -184.7,-445.41 -233.26,-664.99 -8.15,-42 -44.89,-257.1 -57.88,-277.46 -53.11,129.07 -32.22,65.35 -42.53,213.32 -52.8,-92.94 -92.58,-280.19 -107.29,-391.25 -14.63,27.39 -23.79,61.5 -30.25,97.36 -3.34,29.07 -4.76,94.26 -22.72,115.73 -12.13,-65.07 -89.04,-240.09 -87.52,-282.74 -62.53,14.05 -7.58,247.06 -1.87,294.7 -22.84,-17.88 -139.75,-234.5 -180.06,-256.62 -2.74,103.64 49.62,191.84 72.83,272.56 -66.5,-51.6 -111.55,-155.13 -196.78,-191.39 -1.3,72.33 92.48,189.53 104.64,252.58l-163.94 -96.88c48.83,156.07 113.79,192.14 126.44,216.52l-88.66 -21.33 29.08 90.6c166.83,61.71 316.49,158.79 439.88,282.17 220.99,221.01 357.69,526.32 357.69,863.56 0,216.9 -56.56,420.58 -155.71,597.14 304.89,237.75 771.21,403.63 1358.43,513.93zm-800.43 -1138.87l114.36 15.42 -39.15 24.57 -75.21 -39.99z"/>
   <path class="fil2" d="M1517.69 1138.02c337.23,0 642.55,136.69 863.56,357.69 220.99,221.01 357.69,526.32 357.69,863.56 0,337.24 -136.7,642.56 -357.69,863.55 -221.01,221.01 -526.33,357.7 -863.56,357.7 -337.24,0 -642.56,-136.69 -863.56,-357.7 -221,-221 -357.7,-526.31 -357.7,-863.55 0,-337.24 136.7,-642.55 357.7,-863.56 221,-221 526.32,-357.69 863.56,-357.69z"/>
   <path class="fil3" d="M2658.22 2406.34c-29.05,15.47 -210.47,253.06 -495.51,351.13 -397.81,136.87 -584.18,104.39 -968.83,-74.32 114.85,207.5 720.88,729.13 -50.83,750.84 293.8,107.19 628.74,79.18 905.75,-66.53 338.48,-178.04 592.86,-527.08 609.42,-961.12z"/>
   <path class="fil4" d="M990.04 1348.93c27.93,17.42 324.39,55.74 551.85,253.56 317.43,276.08 382.49,453.72 420.04,876.2 122.28,-203.22 271.01,-988.87 675.67,-331.41 -54.08,-308.03 -245.81,-584.09 -510.5,-751.14 -323.42,-204.11 -752.88,-249.88 -1137.06,-47.21z"/>
   <path class="fil5" d="M906.64 3322.53c1.13,-32.9 -113.93,-308.8 -56.34,-604.69 80.37,-412.94 201.69,-558.11 548.79,-801.87 -237.14,-4.29 -991.89,259.73 -624.84,-419.44 -239.72,200.85 -382.93,504.92 -395.25,817.67 -15.06,382.15 160.03,776.97 527.64,1008.33z"/>
   <path class="fil6" d="M1218.43 1665.24l0 27.1c0,50.18 -16.05,90.83 -48.17,121.94 -32.12,31.11 -73.6,46.67 -124.45,46.67 -54.19,0 -99.11,-17.65 -134.73,-52.94 -35.64,-35.3 -53.45,-78.37 -53.45,-129.22 0,-51.18 17.65,-94.51 52.94,-129.97 35.29,-35.46 79.04,-53.2 131.23,-53.2 32.78,0 62.73,7.45 89.82,22.34 27.1,14.88 48.17,34.71 63.23,59.46l-59.22 34.13c-8.36,-14.39 -20.99,-26.1 -37.88,-35.13 -16.9,-9.03 -35.71,-13.55 -56.45,-13.55 -33.46,0 -60.97,10.96 -82.55,32.87 -21.58,21.91 -32.37,49.59 -32.37,83.05 0,33.12 10.95,60.47 32.87,82.05 21.91,21.57 50.93,32.36 87.06,32.36 26.77,0 48.93,-5.93 66.49,-17.81 17.57,-11.88 29.53,-28.19 35.88,-48.93l-106.38 0 0 -61.22 176.13 0z"/>
   <path class="fil6" d="M2384.69 2118.23c33.79,0 62.22,11.37 85.31,34.12 23.08,22.75 34.62,50.68 34.62,83.8 0,33.12 -11.54,61.05 -34.62,83.8 -23.09,22.76 -51.52,34.13 -85.31,34.13l-61.72 0 0 115.41 -69.25 0 0 -351.26 130.97 0zm0 171.11c14.72,0 26.93,-5.1 36.64,-15.3 9.69,-10.21 14.55,-22.84 14.55,-37.89 0,-15.39 -4.86,-28.1 -14.55,-38.14 -9.71,-10.03 -21.92,-15.05 -36.64,-15.05l-61.72 0 0 106.38 61.72 0z"/>
   <path class="fil6" d="M1173.28 2936.95c33.79,0 62.22,11.37 85.32,34.12 23.08,22.75 34.62,50.68 34.62,83.8 0,33.12 -11.54,61.05 -34.62,83.8 -23.1,22.75 -51.53,34.13 -85.32,34.13l-61.72 0 0 115.41 -69.25 0 0 -351.26 130.97 0zm0 171.11c14.73,0 26.93,-5.1 36.64,-15.3 9.7,-10.2 14.55,-22.83 14.55,-37.89 0,-15.39 -4.85,-28.1 -14.55,-38.13 -9.71,-10.04 -21.91,-15.06 -36.64,-15.06l-61.72 0 0 106.38 61.72 0z"/>
   <path class="fil7" d="M29.57 2403.38l9.94 69.12c50.85,-21.98 74.33,-73.08 91.4,-124.94 22.15,129.35 -2.11,84.15 -42.78,154.27 -28.59,49.29 -14.81,145.64 8.57,172.7 40.05,-29.8 42.55,-63.55 60.45,-117.73 48.61,68.22 -3.22,132.59 -9.57,149.48 -23.46,62.36 -5.93,109.85 23.04,163.24 22.9,-14.12 6.92,1.3 20.63,-20.44 9.13,-14.5 22.61,-71.56 28.24,-84.49 39.44,116.2 13.86,39.49 -1.25,135.87 -8.85,56.47 24.43,108.73 49.56,143.79l6.37 -8.99c25.47,-42.35 18.4,-63.68 29.36,-87.63 48.84,76.72 7.66,48.3 16.71,123.33 5.56,46.07 34.73,84.02 59.45,104.02 40.92,-60.19 2.13,-122.95 -5.95,-146.79 49.64,30.8 49.44,47.6 138.64,36.98 -44.8,-111.11 -161.68,-79.45 -176.11,-85.79 -1.36,-1.17 -3.55,-4.87 -3.84,-3.75l-13.37 -16.72 -36.38 -78.07c36.06,30.13 81.04,73.42 152.22,59.44 -29.49,-85.02 -89.46,-118.33 -178.64,-118.77l-33.2 -88.34c28.61,20.25 20.98,27.07 56.94,42.12 24.49,10.27 41.6,16.32 70.84,16.6 -25.18,-87.13 -56.46,-117.39 -123.09,-136.78 -38.35,-11.16 -40.89,-18.68 -49.81,-99.14 36.62,27.17 57.27,59.5 116.18,68.79 -9.6,-45.51 -17.42,-85.43 -41.75,-117.25 -33.25,-43.5 -51.32,-35.55 -90.02,-60.93l-6.28 -72.19c26.5,16.74 46.98,60.23 106.38,74.39 -14.25,-174.95 -38.57,-145.23 -105.7,-205.39l2.51 -48.68c33.79,23.22 43.79,61.08 82.86,72.52 44.78,-116.31 -61.2,-198.96 -62.37,-221.48 -0.94,-18.12 13.92,-56.3 16.24,-72.03 20.17,45.66 41.27,87.24 75.52,106.56 24.08,-38.38 25.09,-114.71 11.66,-156.04 -20.1,-61.82 -68.95,-63.73 -31.16,-126.23 11.91,17.12 16.83,52.17 27.19,73.46 5.28,10.86 12.19,23.99 17.98,33.32 17.16,27.66 17.24,22.34 25.96,27.84 19.2,-66 57.13,-109.21 26.77,-205.24 -16.09,-50.92 -45.27,-47.61 -21.89,-91.35 13.14,-24.56 34.61,-68.48 53.66,-74.91 -30.19,39.43 -8.46,155.95 27.17,202.42 35.24,-30.34 76.88,-114.9 74.84,-172.34 -4.27,-120.02 -78.5,-112.64 19.17,-192.08 -7.87,70.74 -28.65,104.36 3.37,193.57 32.43,-15.17 79.38,-77.86 97.01,-114.03 34.1,-69.95 14.11,-105.66 8.32,-190.74 27.36,-25.88 84.89,-69.17 114.26,-86.52 -6.01,12.4 -19.6,26.45 -28.14,40.73 -11.41,19.08 -16.47,26.79 -23.67,50.39 -13.58,44.54 -16.34,82.35 -10.89,134 50.53,-15.77 108.13,-77.39 129.19,-107.35 37.28,-53.03 25.92,-105.17 32.45,-177.75 16.92,-19.56 102.55,-58.47 131.46,-66.14 -51.44,53.42 -115.55,93.85 -120.26,225.31 104.75,-16.77 230.06,-201.72 231.09,-267.86 0.67,-42.99 -104.81,-82.76 -147.67,-89.79 -58.19,-9.54 -184.59,19.58 -210.28,60.37 43.04,46.83 120.41,56.5 156.13,68.26l14.09 5.74c-106.37,77.41 -96.2,7.17 -195.68,9.98 -66.09,1.87 -171.83,57.03 -190.97,105.14 26.75,5.14 46.99,14.37 76.88,20.14 25.61,4.94 59.54,0.49 82.42,7.92 -89.29,83.53 -92.3,6.45 -208.66,41.26 -68.31,20.43 -124.91,87.76 -152.37,123.5 9.83,8.76 3.43,5.94 18.89,11.39 4.06,1.43 15,3.13 21.69,3.8 61.22,6.15 93.64,-0.35 144.78,-21.52 -4.92,16.33 -40.8,58.88 -63.8,65.12 -47.36,12.86 -71.69,-1.46 -123.38,26.77 -57.21,31.24 -97.93,93.18 -116.78,149.34 81.29,-0.76 89.45,-14.26 152.36,-31.84l-21.94 42.12c-149.29,30.03 -203.86,80.94 -226.3,210.74 82.7,-11.42 128.02,-48.01 165.48,-91.92 -5.92,25.21 -19.51,43.85 -25.94,73.52 -112.75,30.11 -171.41,96.48 -167.13,213.29 58.56,-17.45 110.22,-61.86 128.92,-101.78l-21.72 102.21c-102.94,23 -141.18,115.17 -130.39,222.76 62.9,-19.42 99.29,-83.43 115.25,-144.91 16.91,163.84 -56.61,118.14 -93.5,203.38 -13.73,31.74 -9.77,58.59 -17.86,85.65zm613.59 949.25c11.37,79.38 25.65,106.24 90.93,118.95 -9.31,-59.04 -13.35,-52.09 -39.2,-90.68 34.27,-0.57 65.37,-6.12 92.3,-18.26 -8.3,-20.08 -2.78,-14.96 -25.25,-24.88 -43.68,-19.28 -81.6,-5.75 -118.78,14.87zm-116.72 -105.02c-0.49,69.39 17.42,138.49 92.88,156.25 -8.07,-65.26 -10.34,-80.41 -43.62,-120.21 27.72,3.65 37.24,14.47 74.34,8.63 44.01,-6.93 62.56,-11.86 31.78,-34.62 -50.15,-37.08 -85.53,-32.89 -155.38,-10.05zm-29.6 57.2c27.79,-63.13 -13.55,-108.09 -31.59,-144.82 37.73,30.97 79.43,29.91 144.15,19.26 -11.38,-25.53 -45.95,-53.34 -74.34,-64.12 -22.29,-8.45 -96.06,-8.33 -111.45,12.67 -19,25.93 -6.23,150.78 73.23,177.01z"/>
   <polygon class="fil8" points="1476.28,717.27 1522.39,860.12 1672.51,859.83 1550.9,947.83 1597.56,1090.51 1476.28,1002.03 1355.02,1090.51 1401.68,947.83 1280.06,859.83 1430.17,860.12 "/>
  </g>
 </g>
</svg>
